<svg xmlns="http://www.w3.org/2000/svg" width="32" height="32">
    <path class="nav-icon" d="M16,1C7.7,1,1,7.7,1,16c0,6.6,4.3,12.2,10.2,14.2c0.7,0.1,1-0.4,1-0.7s0-1.3,0-2.6c-4.1,0.9-5-2-5-2 c-0.6-1.7-1.7-2.2-1.7-2.2c-1.4-0.9,0.1-0.9,0.1-0.9c1.5,0.1,2.3,1.6,2.3,1.6c1.4,2.3,3.5,1.7,4.3,1.3c0.1-1,0.6-1.7,0.9-2 c-3.3-0.4-6.8-1.7-6.8-7.4c0-1.7,0.6-2.9,1.6-4c-0.1-0.3-0.6-1.8,0.2-3.9c0,0,1.3-0.4,4.1,1.6c1.2-0.4,2.5-0.5,3.8-0.5 s2.6,0.2,3.8,0.5c2.8-1.9,4.1-1.6,4.1-1.6c0.8,2,0.3,3.6,0.2,3.9c0.9,1,1.6,2.4,1.6,4c0,5.8-3.5,7-6.8,7.3c0.6,0.5,1,1.4,1,2.8 c0,2,0,3.6,0,4.1c0,0.4,0.3,0.8,1,0.7c6-2,10.2-7.6,10.2-14.2C30.9,7.7,24.2,1,16,1z"/>
</svg>
