<?xml version="1.0" encoding="utf-8"?>
<svg version="1.1" xmlns="http://www.w3.org/2000/svg" xmlns:xlink="http://www.w3.org/1999/xlink" width="500" height="380">
<style type="text/css">
    .st0{fill:url(#SVGID_1_);}
    .st1{fill:#F2F2F2;}
    .st2{fill:#333333;}
    .st3{fill:#FFFFFF;}
    .st4{fill:#1A1A1A;}
    .st5{fill:#4D4D4D;}
    .st6{fill:#666666;}
    .st7{fill:#808080;}
    .st8{fill:#999999;}
    .st9{fill:#B3B3B3;}
    .st10{fill:#CCCCCC;}
    .st11{fill:#E6E6E6;}
    .st12{font-family:'Helvetica Neue', 'Helvetica', 'Arial';font-size:12;}
    .st14{fill:none;stroke:#CCCCCC;stroke-miterlimit:10;}
    .st15{fill:#FC605C;}
    .st16{fill:#FDBC40;}
    .st17{fill:#35C94A;}
    .st18{fill:#FFFFFF;stroke:#CCCCCC;stroke-miterlimit:10;}
    .st19{opacity:0.5;}
</style>
<g>
    <linearGradient id="SVGID_1_" gradientUnits="userSpaceOnUse" x1="250" y1="380" x2="250" y2="-1.104399e-08">
        <stop  offset="0" style="stop-color:#CCCCCC"/>
        <stop  offset="1" style="stop-color:#E6E6E6"/>
    </linearGradient>
    <path class="st0" d="M496,380H4c-2.2,0-4-1.8-4-4V4c0-2.2,1.8-4,4-4h492c2.2,0,4,1.8,4,4v372C500,378.2,498.2,380,496,380z"/>
    <rect x="5" y="25" class="st1" width="490" height="350"/>
    <rect x="5" y="25" class="st2" width="490" height="18"/>
    <rect x="21" y="80.9" class="st3" width="458" height="266"/>
    <g>
        <rect x="479" y="80.9" class="st4" width="16" height="20"/>
        <rect x="479" y="100.9" class="st2" width="16" height="20"/>
        <rect x="479" y="120.9" class="st5" width="16" height="20"/>
        <rect x="479" y="140.9" class="st6" width="16" height="20"/>
        <rect x="479" y="160.9" class="st7" width="16" height="20"/>
        <rect x="479" y="180.9" class="st8" width="16" height="20"/>
        <rect x="479" y="200.9" class="st9" width="16" height="20"/>
        <rect x="479" y="220.9" class="st10" width="16" height="20"/>
        <rect x="479" y="240.9" class="st11" width="16" height="20"/>
    </g>
    <text transform="matrix(1 0 0 1 7.9987 17.2007)" class="st6 st12">CorelDRAW</text>
    <line class="st14" x1="5" y1="80.9" x2="495" y2="80.9"/>
    <line class="st14" x1="5" y1="346.9" x2="495" y2="346.9"/>
    <g>
        <rect x="14" y="29" class="st5" width="20" height="10"/>
        <rect x="84" y="29" class="st5" width="20" height="10"/>
        <rect x="236" y="29" class="st5" width="20" height="10"/>
        <rect x="206" y="29" class="st5" width="20" height="10"/>
        <rect x="44" y="29" class="st5" width="30" height="10"/>
        <rect x="114" y="29" class="st5" width="36" height="10"/>
        <rect x="160" y="29" class="st5" width="36" height="10"/>
    </g>
    <g>
        <circle class="st15" cx="486" cy="13" r="5"/>
        <circle class="st16" cx="468.8" cy="13" r="5"/>
        <circle class="st17" cx="451.6" cy="13" r="5"/>
    </g>
    <rect x="98" y="95" class="st18" width="304" height="237.7"/>
    <rect x="108" y="105" class="st16" width="140" height="68"/>
    <rect x="252" y="105" class="st16" width="140" height="68"/>
    <rect x="108" y="178" class="st16" width="140" height="68"/>
    <rect x="252" y="178" class="st16" width="140" height="68"/>
    <rect x="108" y="250.9" class="st16" width="140" height="68"/>
    <rect x="252" y="250.9" class="st16" width="140" height="68"/>
    <g class="st19">
        <g>
            <rect x="164.4" y="141.4" class="st3" width="1.9" height="18.8"/>
            <rect x="190.3" y="141.4" class="st3" width="1.9" height="18.8"/>
            <rect x="168.9" y="141.4" class="st3" width="3" height="18.8"/>
            <rect x="213" y="141.4" class="st3" width="3" height="18.8"/>
            <rect x="200.7" y="141.4" class="st3" width="3" height="18.8"/>
            <rect x="184.6" y="141.4" class="st3" width="3" height="18.8"/>
            <rect x="205.1" y="141.4" class="st3" width="2.2" height="18.8"/>
            <rect x="174.7" y="141.4" class="st3" width="1.5" height="18.8"/>
            <rect x="210.6" y="141.4" class="st3" width="1.5" height="18.8"/>
            <rect x="181.9" y="141.4" class="st3" width="1.5" height="18.8"/>
            <rect x="194.6" y="141.4" class="st3" width="1.5" height="18.8"/>
        </g>
        <path class="st3" d="M222.4,125.9h-56c-1.1,0-2-0.9-2-2v0c0-1.1,0.9-2,2-2h56c1.1,0,2,0.9,2,2v0
        C224.4,125,223.6,125.9,222.4,125.9z"/>
        <path class="st3" d="M202.4,133.2h-36c-1.1,0-2-0.9-2-2l0,0c0-1.1,0.9-2,2-2h36c1.1,0,2,0.9,2,2l0,0
        C204.4,132.3,203.6,133.2,202.4,133.2z"/>
        <rect x="121.7" y="117.9" class="st3" width="31.3" height="42.3"/>
    </g>
    <g class="st19">
        <g>
            <rect x="164.4" y="214.3" class="st3" width="1.9" height="18.8"/>
            <rect x="190.3" y="214.3" class="st3" width="1.9" height="18.8"/>
            <rect x="168.9" y="214.3" class="st3" width="3" height="18.8"/>
            <rect x="213" y="214.3" class="st3" width="3" height="18.8"/>
            <rect x="200.7" y="214.3" class="st3" width="3" height="18.8"/>
            <rect x="184.6" y="214.3" class="st3" width="3" height="18.8"/>
            <rect x="205.1" y="214.3" class="st3" width="2.2" height="18.8"/>
            <rect x="174.7" y="214.3" class="st3" width="1.5" height="18.8"/>
            <rect x="210.6" y="214.3" class="st3" width="1.5" height="18.8"/>
            <rect x="181.9" y="214.3" class="st3" width="1.5" height="18.8"/>
            <rect x="194.6" y="214.3" class="st3" width="1.5" height="18.8"/>
        </g>
        <path class="st3" d="M222.4,198.8h-56c-1.1,0-2-0.9-2-2l0,0c0-1.1,0.9-2,2-2h56c1.1,0,2,0.9,2,2l0,0
        C224.4,197.9,223.6,198.8,222.4,198.8z"/>
        <path class="st3" d="M202.4,206.2h-36c-1.1,0-2-0.9-2-2v0c0-1.1,0.9-2,2-2h36c1.1,0,2,0.9,2,2v0
        C204.4,205.3,203.6,206.2,202.4,206.2z"/>
        <rect x="121.7" y="190.8" class="st3" width="31.3" height="42.3"/>
    </g>
    <g class="st19">
        <g>
            <rect x="164.4" y="287.3" class="st3" width="1.9" height="18.8"/>
            <rect x="190.3" y="287.3" class="st3" width="1.9" height="18.8"/>
            <rect x="168.9" y="287.3" class="st3" width="3" height="18.8"/>
            <rect x="213" y="287.3" class="st3" width="3" height="18.8"/>
            <rect x="200.7" y="287.3" class="st3" width="3" height="18.8"/>
            <rect x="184.6" y="287.3" class="st3" width="3" height="18.8"/>
            <rect x="205.1" y="287.3" class="st3" width="2.2" height="18.8"/>
            <rect x="174.7" y="287.3" class="st3" width="1.5" height="18.8"/>
            <rect x="210.6" y="287.3" class="st3" width="1.5" height="18.8"/>
            <rect x="181.9" y="287.3" class="st3" width="1.5" height="18.8"/>
            <rect x="194.6" y="287.3" class="st3" width="1.5" height="18.8"/>
        </g>
        <path class="st3" d="M222.4,271.7h-56c-1.1,0-2-0.9-2-2l0,0c0-1.1,0.9-2,2-2h56c1.1,0,2,0.9,2,2l0,0
        C224.4,270.8,223.6,271.7,222.4,271.7z"/>
        <path class="st3" d="M202.4,279.1h-36c-1.1,0-2-0.9-2-2l0,0c0-1.1,0.9-2,2-2h36c1.1,0,2,0.9,2,2l0,0
        C204.4,278.2,203.6,279.1,202.4,279.1z"/>
        <rect x="121.7" y="263.7" class="st3" width="31.3" height="42.3"/>
    </g>
    <g class="st19">
        <g>
            <rect x="308.9" y="141.4" class="st3" width="1.9" height="18.8"/>
            <rect x="334.8" y="141.4" class="st3" width="1.9" height="18.8"/>
            <rect x="313.4" y="141.4" class="st3" width="3" height="18.8"/>
            <rect x="357.5" y="141.4" class="st3" width="3" height="18.8"/>
            <rect x="345.2" y="141.4" class="st3" width="3" height="18.8"/>
            <rect x="329.1" y="141.4" class="st3" width="3" height="18.8"/>
            <rect x="349.6" y="141.4" class="st3" width="2.2" height="18.8"/>
            <rect x="319.2" y="141.4" class="st3" width="1.5" height="18.8"/>
            <rect x="355.1" y="141.4" class="st3" width="1.5" height="18.8"/>
            <rect x="326.4" y="141.4" class="st3" width="1.5" height="18.8"/>
            <rect x="339.1" y="141.4" class="st3" width="1.5" height="18.8"/>
        </g>
        <path class="st3" d="M366.9,125.9h-56c-1.1,0-2-0.9-2-2v0c0-1.1,0.9-2,2-2h56c1.1,0,2,0.9,2,2v0
        C368.9,125,368.1,125.9,366.9,125.9z"/>
        <path class="st3" d="M346.9,133.2h-36c-1.1,0-2-0.9-2-2l0,0c0-1.1,0.9-2,2-2h36c1.1,0,2,0.9,2,2l0,0
        C348.9,132.3,348.1,133.2,346.9,133.2z"/>
        <rect x="266.2" y="117.9" class="st3" width="31.3" height="42.3"/>
    </g>
    <g class="st19">
        <g>
            <rect x="308.9" y="214.3" class="st3" width="1.9" height="18.8"/>
            <rect x="334.8" y="214.3" class="st3" width="1.9" height="18.8"/>
            <rect x="313.4" y="214.3" class="st3" width="3" height="18.8"/>
            <rect x="357.5" y="214.3" class="st3" width="3" height="18.8"/>
            <rect x="345.2" y="214.3" class="st3" width="3" height="18.8"/>
            <rect x="329.1" y="214.3" class="st3" width="3" height="18.8"/>
            <rect x="349.6" y="214.3" class="st3" width="2.2" height="18.8"/>
            <rect x="319.2" y="214.3" class="st3" width="1.5" height="18.8"/>
            <rect x="355.1" y="214.3" class="st3" width="1.5" height="18.8"/>
            <rect x="326.4" y="214.3" class="st3" width="1.5" height="18.8"/>
            <rect x="339.1" y="214.3" class="st3" width="1.5" height="18.8"/>
        </g>
        <path class="st3" d="M366.9,198.8h-56c-1.1,0-2-0.9-2-2l0,0c0-1.1,0.9-2,2-2h56c1.1,0,2,0.9,2,2l0,0
        C368.9,197.9,368.1,198.8,366.9,198.8z"/>
        <path class="st3" d="M346.9,206.2h-36c-1.1,0-2-0.9-2-2v0c0-1.1,0.9-2,2-2h36c1.1,0,2,0.9,2,2v0
        C348.9,205.3,348.1,206.2,346.9,206.2z"/>
        <rect x="266.2" y="190.8" class="st3" width="31.3" height="42.3"/>
    </g>
    <g class="st19">
        <g>
            <rect x="308.9" y="287.3" class="st3" width="1.9" height="18.8"/>
            <rect x="334.8" y="287.3" class="st3" width="1.9" height="18.8"/>
            <rect x="313.4" y="287.3" class="st3" width="3" height="18.8"/>
            <rect x="357.5" y="287.3" class="st3" width="3" height="18.8"/>
            <rect x="345.2" y="287.3" class="st3" width="3" height="18.8"/>
            <rect x="329.1" y="287.3" class="st3" width="3" height="18.8"/>
            <rect x="349.6" y="287.3" class="st3" width="2.2" height="18.8"/>
            <rect x="319.2" y="287.3" class="st3" width="1.5" height="18.8"/>
            <rect x="355.1" y="287.3" class="st3" width="1.5" height="18.8"/>
            <rect x="326.4" y="287.3" class="st3" width="1.5" height="18.8"/>
            <rect x="339.1" y="287.3" class="st3" width="1.5" height="18.8"/>
        </g>
        <path class="st3" d="M366.9,271.7h-56c-1.1,0-2-0.9-2-2l0,0c0-1.1,0.9-2,2-2h56c1.1,0,2,0.9,2,2l0,0
        C368.9,270.8,368.1,271.7,366.9,271.7z"/>
        <path class="st3" d="M346.9,279.1h-36c-1.1,0-2-0.9-2-2l0,0c0-1.1,0.9-2,2-2h36c1.1,0,2,0.9,2,2l0,0
        C348.9,278.2,348.1,279.1,346.9,279.1z"/>
        <rect x="266.2" y="263.7" class="st3" width="31.3" height="42.3"/>
    </g>
</g>
</svg>
