<svg xmlns="http://www.w3.org/2000/svg" viewBox="0 0 1000 400">
<defs>
<style>
.a{fill:#e7e5e7;}
.b{fill:#fc605c;}
.c{fill:#fdbc40;}
.d{fill:#35c94a;}
.e{fill:#333635;}
.f{fill:#ce5347;}
.g{fill:#4d5250;}
.h{font-size:16px;font-weight:bold;}
.h,.i{fill:#fff;}
.h,.j{font-family:'Helvetica Neue', 'Helvetica', 'Arial';}
.j{font-size:22px;fill:#4d4d4d;}
.k{fill:#e6e6e6;}
.l{fill:gray;}
</style>
</defs>
<path class="a" d="M950 64H50V52c0-3.3 2.7-6 6-6h888c3.3 0 6 2.7 6 6V64z"/>
<circle class="b" cx="62" cy="55" r="5"/>
<circle class="c" cx="79" cy="55" r="5"/>
<circle class="d" cx="96" cy="55" r="5"/>
<rect class="e" x="50" y="64" width="50" height="336"/>
<rect class="f" x="63.27" y="78.53" width="26.94" height="26.94" rx="4.08" ry="4.08"/>
<path class="g" d="M51.2,79H50v27h1.2a4.25,4.25,0,0,0,3.8-4V82C55,80.07,53.09,79,51.2,79Z"/>
<rect class="g" x="100" y="64" width="186" height="336"/>
<text class="h" transform="translate(116 94)">CDRPRO.RU</text>
<rect class="l" x="116" y="140" width="111" height="12" rx="5" ry="5"/>
<rect class="l" x="126" y="164" width="90" height="10" rx="4" ry="4"/>
<rect class="l" x="126" y="184" width="40" height="10" rx="4" ry="4"/>
<rect class="l" x="126" y="204" width="67" height="10" rx="4" ry="4"/>
<rect class="l" x="126" y="224" width="78" height="10" rx="4" ry="4"/>
<rect class="l" x="126" y="244" width="67" height="10" rx="4" ry="4"/>
<rect class="l" x="126" y="264" width="104" height="10" rx="4" ry="4"/>
<rect class="l" x="116" y="304" width="111" height="12" rx="5" ry="5"/>
<rect class="l" x="126" y="328" width="73" height="10" rx="4" ry="4"/>
<rect class="l" x="126" y="348" width="52" height="10" rx="4" ry="4"/>
<rect class="i" x="286" y="64" width="664" height="336"/>
<text class="j" transform="translate(309 94)">#coreldraw</text>
<rect class="k" x="286" y="116" width="664" height="1"/>
<rect class="k" x="309" y="137" width="30" height="30" rx="4" ry="4"/>
<rect class="k" x="348" y="140" width="95" height="10" rx="4" ry="4"/>
<rect class="k" x="348" y="157" width="296" height="10" rx="4" ry="4"/>
<rect class="k" x="309" y="246" width="30" height="30" rx="5" ry="5"/>
<rect class="k" x="348" y="249" width="95" height="10" rx="4" ry="4"/>
<rect class="k" x="348" y="266" width="156" height="10" rx="4" ry="4"/>
<rect class="k" x="309" y="292" width="30" height="30" rx="5" ry="5"/>
<rect class="k" x="348" y="296" width="95" height="10" rx="4" ry="4"/>
<rect class="k" x="348" y="312" width="248" height="10" rx="4" ry="4"/>
<rect class="k" x="309" y="183" width="30" height="30" rx="5" ry="5"/>
<rect class="k" x="348" y="186" width="95" height="10" rx="4" ry="4"/>
<rect class="k" x="348" y="203" width="497" height="10" rx="4" ry="4"/>
<rect class="k" x="348" y="220" width="377" height="10" rx="4" ry="4"/>
<rect class="k" x="309" y="339" width="30" height="30" rx="5" ry="5"/>
<rect class="k" x="348" y="342" width="95" height="10" rx="4" ry="4"/>
<rect class="k" x="348" y="358" width="296" height="10" rx="4" ry="4"/>
</svg>
